# xmcd
#
# Track frame offsets: 
#        150
#        18891
#        35485
#
# Disc length: 713 seconds
#
# Revision: 1
# Processed by: cddbd v1.5.2PL0 Copyright (c) Steve Scherf et al.
# Submitted via: ExactAudioCopy v1.3
#
DISCID=1802c703
DTITLE=吳堯堯 - 從新·感動
DYEAR=2018
DGENRE=Pop
TTITLE0=別人的幸福
TTITLE1=美麗約定
TTITLE2=新出發
EXTD=
EXTT0=
EXTT1=
EXTT2=
PLAYORDER=
